<svg xmlns="http://www.w3.org/2000/svg" width="32" height="32" viewBox="0 0 32 32">
	<g>
		<circle cx="16" cy="16" r="16" fill="#fff"/>
		<path d="M27 16.3c0-.9-.1-1.7-.2-2.5H16v4.7h6.2c-.3 1.3-1.2 2.4-2.5 3.1v2.6h4c2.3-2.1 3.6-5.2 3.6-8.4z" fill="#4285F4"/>
		<path d="M16 28c2.4 0 4.4-.8 5.9-2.2l-4-3.1c-1.1.7-2.5 1.1-3.9 1.1-3 0-5.5-2-6.4-4.7H4v2.9C5.6 25.8 10.5 28 16 28z" fill="#34A853"/>
		<path d="M9.6 19.1c-.3-.7-.5-1.4-.5-2.1s.2-1.5.5-2.1v-2.9H4c-1.1 2.2-1.1 4.8 0 7l5.6-2.9z" fill="#FBBC05"/>
		<path d="M16 10.7c1.3 0 2.5.4 3.4 1.1l2.6-2.6C20.4 7.8 18.4 7 16 7c-5.5 0-10.4 2.2-12 6.2l5.6 2.9c.9-2.7 3.4-4.7 6.4-4.7z" fill="#EA4335"/>
	</g>
</svg>